:SAMPLES-PER-SECOND 30
:FULLY-SPECIFIED
:DEGREES
124
root  -49.5491 39.9328 -9.59854 -91.1227 -86.2353 83.8347
RightUpLeg  -21.6358 -0.243085 -8.59823
RightLeg  40.1302 -7.46748 -6.97937
RightFoot  -5.16123 -0.152311 2.17228
RightToes  -5.8209e-011 0 -3.6325e-017
Spine  13.5744 -1.46572 -2.14245
Spine1  2.11549 -1.88522 0.386337
HEad  -15.4129 3.09531 -3.42252
LeftShoulder1  6.97335 -10.5011 -43.303
LeftArm  -3.90619 21.2442 -31.8474
LeftForeArm  -174.799 -66.0037 -159.652
LeftHand  -0.244104 0.0205437 5.32207
RightShoulder  5.45994 9.03293 37.5263
RightArm  19.1944 -28.4212 20.693
RightForeArm  137.418 76.751 132.516
RightHand  0.0920115 -9.09458 -4.16112
LeftUpLeg  -3.44707 10.8542 -9.3795
LeftLeg  21.2284 5.83222 2.56653
LeftFoot  -10.773 0.0296469 7.12652
LeftToes  -6.09394e-011 -3.18376e-011 -2.71738e-012
125
root  -51.1406 40.3484 -9.63509 -83.7613 -86.6761 77.2933
RightUpLeg  -21.4698 -3.30616 -7.00891
RightLeg  26.5719 -6.04475 -3.59702
RightFoot  -4.54053 -0.260333 3.85202
RightToes  -5.8209e-011 0 -3.6325e-017
Spine  12.0575 -2.09914 -2.38671
Spine1  1.85999 -2.65158 1.11535
HEad  -13.9715 4.2871 -3.16685
LeftShoulder1  6.78325 -10.5733 -41.8122
LeftArm  0.33637 19.2344 -32.9191
LeftForeArm  -174.116 -64.5826 -160.952
LeftHand  -0.244104 0.0205437 5.32207
RightShoulder  4.9524 8.77102 34.3963
RightArm  20.7838 -32.5679 17.6443
RightForeArm  140.89 75.6959 136.857
RightHand  0.101435 -9.70456 -3.99776
LeftUpLeg  0.63517 9.98128 -7.46416
LeftLeg  16.9432 6.14666 0.168501
LeftFoot  -10.3829 0.0110336 6.24336
LeftToes  -6.09394e-011 -3.18376e-011 -2.71738e-012
126
root  -52.7232 40.574 -9.72063 -66.5839 -86.3523 60.4038
RightUpLeg  -20.3047 -7.46811 -5.79932
RightLeg  14.0057 -4.95639 -1.08172
RightFoot  -3.07763 -0.350386 4.56589
RightToes  -5.8209e-011 0 -3.6325e-017
Spine  10.604 -2.77755 -3.28525
Spine1  2.56757 -3.60255 2.29175
HEad  -13.012 4.93029 -2.40951
LeftShoulder1  6.62487 -10.6197 -40.612
LeftArm  3.86904 16.7126 -33.1768
LeftForeArm  -173.269 -63.2483 -162.093
LeftHand  -0.244104 0.0205437 5.32207
RightShoulder  4.52846 8.59946 31.4725
RightArm  21.0186 -36.0469 15.4426
RightForeArm  145.614 74.8917 140.123
RightHand  0.0501548 -9.76238 -2.61148
LeftUpLeg  4.50731 7.00063 -6.08801
LeftLeg  13.9004 7.45919 -2.195
LeftFoot  -9.65278 -0.0247444 5.60654
LeftToes  -6.09394e-011 -3.18376e-011 -2.71738e-012
127
root  -54.246 40.5567 -9.82267 -48.82 -85.1505 42.3679
RightUpLeg  -18.4796 -8.51373 -6.58781
RightLeg  3.87795 -7.75227 1.99111
RightFoot  -1.50115 -0.418409 4.73877
RightToes  -5.8209e-011 0 -3.6325e-017
Spine  9.78256 -3.51848 -4.20196
Spine1  3.71366 -4.63893 3.20037
HEad  -12.9239 4.96767 -1.7608
LeftShoulder1  6.49408 -10.5972 -39.8093
LeftArm  6.52457 13.1167 -32.7179
LeftForeArm  -173.76 -62.916 -162.293
LeftHand  -0.244104 0.0205437 5.32207
RightShoulder  4.16244 8.40442 28.9712
RightArm  20.0098 -38.9701 14.2246
RightForeArm  148.155 74.2509 142.245
RightHand  0.0213811 -9.44235 -2.00352
LeftUpLeg  8.00706 5.84951 -5.54173
LeftLeg  12.6259 6.58313 -3.03109
LeftFoot  -10.9169 0.0451892 5.13516
LeftToes  -6.09394e-011 -3.18376e-011 -2.71738e-012
128
root  -55.7942 40.2378 -9.9268 -42.2796 -83.8016 35.2523
RightUpLeg  -16.7471 -8.10321 -7.67135
RightLeg  -2.44336 -10.6266 4.25341
RightFoot  -1.76588 -0.448344 5.20619
RightToes  -5.8209e-011 0 -3.6325e-017
Spine  9.01739 -3.97202 -4.73917
Spine1  5.02588 -5.20086 3.23849
HEad  -12.9516 4.46122 -1.53089
LeftShoulder1  6.57722 -10.8352 -39.6348
LeftArm  8.09759 9.19886 -31.8195
LeftForeArm  -175.27 -64.0137 -161.299
LeftHand  -0.244104 0.0205437 5.32207
RightShoulder  3.79018 7.99283 26.9231
RightArm  17.6063 -41.4426 14.2721
RightForeArm  147.293 74.199 142.22
RightHand  0.0318255 -9.74158 -2.1629
LeftUpLeg  11.2033 5.58249 -5.40515
LeftLeg  12.9852 5.69375 -2.87813
LeftFoot  -14.4043 0.209302 4.58738
LeftToes  -6.09394e-011 -3.18376e-011 -2.71738e-012
129
root  -57.4034 39.7424 -10.0665 -41.6387 -82.5043 34.2914
RightUpLeg  -15.8995 -8.41957 -8.13935
RightLeg  -4.18734 -11.6847 4.56857
RightFoot  -2.15627 -0.443097 5.29184
RightToes  -5.8209e-011 0 -3.6325e-017
Spine  7.9018 -4.09498 -5.77
Spine1  6.03884 -5.48198 3.51482
HEad  -12.4426 3.7868 -1.39505
LeftShoulder1  6.76888 -11.1906 -39.8204
LeftArm  8.80657 6.58908 -31.2857
LeftForeArm  -176.73 -66.1672 -159.291
LeftHand  -0.244104 0.0205437 5.32207
RightShoulder  3.39174 7.20926 25.565
RightArm  14.3795 -42.897 15.1329
RightForeArm  142.734 75.1193 138.947
RightHand  0.0687093 -10.2442 -2.8628
LeftUpLeg  13.961 6.26628 -5.33527
LeftLeg  14.0323 4.43726 -2.52354
LeftFoot  -17.8976 0.361617 4.39179
LeftToes  -6.09394e-011 -3.18376e-011 -2.71738e-012
130
root  -58.9952 39.2875 -10.2145 -39.6586 -81.3456 32.5478
RightUpLeg  -16.2112 -8.89002 -8.39007
RightLeg  -2.35988 -12.8356 4.27958
RightFoot  1.8954 -0.370135 3.44557
RightToes  -5.8209e-011 0 -3.6325e-017
Spine  6.63958 -4.32307 -6.59924
Spine1  6.68105 -5.98756 4.39655
HEad  -11.7791 3.35884 -1.17312
LeftShoulder1  6.87141 -11.1097 -40.7282
LeftArm  8.9125 5.68372 -30.7113
LeftForeArm  -178.607 -68.957 -156.148
LeftHand  -0.244104 0.0205437 5.32207
RightShoulder  3.03854 6.12583 25.4707
RightArm  10.522 -42.3353 16.5419
RightForeArm  131.003 77.2656 128.78
RightHand  0.129925 -10.1763 -4.32813
LeftUpLeg  15.9487 7.60977 -4.93538
LeftLeg  15.2805 2.37099 -1.62568
LeftFoot  -20.6278 0.470982 4.28031
LeftToes  -6.09394e-011 -3.18376e-011 -2.71738e-012
131
root  -60.5408 38.9212 -10.2854 -34.3206 -81.7052 27.5129
RightUpLeg  -18.2904 -10.0507 -7.20608
RightLeg  3.15405 -12.1387 3.83999
RightFoot  9.75327 0.0687428 0.0373498
RightToes  -5.8209e-011 0 -3.6325e-017
Spine  5.73666 -4.6574 -4.40654
Spine1  6.90172 -6.12618 3.88799
HEad  -11.5803 3.36416 -1.225
LeftShoulder1  6.97038 -10.6383 -42.8375
LeftArm  8.25326 6.26963 -29.4369
LeftForeArm  177.557 -72.5985 -150.424
LeftHand  -0.244104 0.0205437 5.32207
RightShoulder  2.92437 5.31009 27.1399
RightArm  4.85527 -39.8467 18.9365
RightForeArm  103.476 79.7303 101.751
RightHand  0.180434 -9.82284 -5.83772
LeftUpLeg  17.106 8.59748 -3.69182
LeftLeg  17.6469 1.23581 0.0582564
LeftFoot  -23.4392 0.371929 2.29489
LeftToes  -6.09394e-011 -3.18376e-011 -2.71738e-012
132
root  -62.0248 38.6423 -10.3012 -22.8235 -84.4521 15.8817
RightUpLeg  -21.1801 -13.3369 -2.71
RightLeg  10.3523 -6.23443 2.70193
RightFoot  15.1538 0.902377 -3.44166
RightToes  -5.8209e-011 0 -3.6325e-017
Spine  5.68374 -4.44114 0.954034
Spine1  6.68532 -5.2243 1.91643
HEad  -12.1171 3.95916 -2.09038
LeftShoulder1  7.35331 -10.4005 -46.0958
LeftArm  6.26111 8.45811 -28.0654
LeftForeArm  166.737 -77.4462 -136.384
LeftHand  -0.244104 0.0205437 5.32207
RightShoulder  3.1792 5.33854 29.959
RightArm  -3.47967 -36.2223 22.4279
RightForeArm  61.3356 78.1564 56.9534
RightHand  0.203825 -9.4771 -6.83995
LeftUpLeg  17.1952 8.99356 -1.11369
LeftLeg  22.7616 2.00179 1.3401
LeftFoot  -24.5724 -0.143299 -2.62387
LeftToes  -6.09394e-011 -3.18376e-011 -2.71738e-012
133
root  -63.3525 38.5496 -10.4095 5.51546 -87.1645 -12.5652
RightUpLeg  -23.087 -16.5964 3.05163
RightLeg  15.9625 0.30822 1.18892
RightFoot  14.29 1.50502 -6.2064
RightToes  -5.8209e-011 0 -3.6325e-017
Spine  6.50303 -3.80091 5.3182
Spine1  5.92475 -4.1258 1.27057
HEad  -12.6673 4.86556 -3.35797
LeftShoulder1  7.89558 -10.6199 -48.7884
LeftArm  2.70561 12.1532 -28.4919
LeftForeArm  128.79 -81.3361 -94.4711
LeftHand  -0.244104 0.0205437 5.32207
RightShoulder  3.70773 6.07971 32.7346
RightArm  -12.8915 -32.1452 26.4804
RightForeArm  36.9753 70.341 28.8725
RightHand  0.17549 -8.10089 -9.14156
LeftUpLeg  14.7989 10.0559 2.50417
LeftLeg  31.6369 2.15045 1.76694
LeftFoot  -20.0657 -0.475217 -8.11218
LeftToes  -6.09394e-011 -3.18376e-011 -2.71738e-012
134
root  -64.4189 38.6323 -10.646 33.4733 -86.5422 -40.076
RightUpLeg  -23.2884 -16.7188 5.24404
RightLeg  18.9214 0.297155 0.58172
RightFoot  10.3876 1.54508 -7.64113
RightToes  -5.8209e-011 0 -3.6325e-017
Spine  7.50017 -3.67751 6.22808
Spine1  5.00759 -4.13468 3.10732
HEad  -12.8653 5.38122 -3.72373
LeftShoulder1  8.15937 -10.8729 -49.5338
LeftArm  -1.39106 15.6455 -30.7969
LeftForeArm  78.0949 -77.2809 -41.4922
LeftHand  -0.244104 0.0205437 5.32207
RightShoulder  4.20005 6.79377 34.8341
RightArm  -20.1016 -27.7595 30.5488
RightForeArm  22.5214 58.9654 16.8234
RightHand  -0.175744 -4.25704 -14.4204
LeftUpLeg  8.44269 9.58868 5.03775
LeftLeg  43.5526 2.06608 2.53654
LeftFoot  -10.1599 0.133533 -10.273
LeftToes  -6.09394e-011 -3.18376e-011 -2.71738e-012
135
root  -65.25 38.8141 -10.8774 24.3091 -83.9344 -30.2009
RightUpLeg  -22.5827 -17.4396 4.93945
RightLeg  19.7458 -1.89759 1.06362
RightFoot  8.08199 1.39801 -7.82173
RightToes  -5.8209e-011 0 -3.6325e-017
Spine  8.42859 -4.17286 6.31178
Spine1  4.12942 -4.72853 4.70345
HEad  -13.0528 4.51457 -2.83872
LeftShoulder1  8.25133 -11.1526 -49.1378
LeftArm  -3.72352 17.2659 -32.4534
LeftForeArm  57.358 -68.1825 -21.6924
LeftHand  -0.244104 0.0205437 5.32207
RightShoulder  4.4343 7.08477 35.8998
RightArm  -22.6382 -23.7662 34.3442
RightForeArm  6.07096 46.4172 11.2783
RightHand  -1.08259 1.17756 -19.4584
LeftUpLeg  -0.161019 6.74903 5.62168
LeftLeg  55.0491 2.64501 4.60269
LeftFoot  -1.81165 0.680038 -8.05251
LeftToes  -6.09394e-011 -3.18376e-011 -2.71738e-012
136
root  -66.0333 39.1346 -11.0237 18.2758 -82.021 -23.745
RightUpLeg  -20.6408 -16.5284 3.21828
RightLeg  18.8058 -5.04455 2.18635
RightFoot  7.62488 1.33071 -7.63632
RightToes  -5.8209e-011 0 -3.6325e-017
Spine  9.13156 -4.14495 7.83532
Spine1  3.65025 -4.25643 3.6307
HEad  -13.8155 2.12774 -1.85273
LeftShoulder1  8.55474 -11.6717 -49.2034
LeftArm  -2.85573 16.9159 -31.6657
LeftForeArm  46.4513 -58.6662 -14.1557
LeftHand  -0.244104 0.0205437 5.32207
RightShoulder  4.58793 7.36217 36.2337
RightArm  -19.9766 -20.9784 37.0732
RightForeArm  -8.10339 35.9024 8.53887
RightHand  -1.55236 3.78001 -19.695
LeftUpLeg  -7.66827 4.95401 5.25032
LeftLeg  63.2916 3.27467 7.67833
LeftFoot  -0.33494 0.463771 -4.65381
LeftToes  -6.09394e-011 -3.18376e-011 -2.71738e-012
